<?xml version="1.0" standalone="no"?>
<!DOCTYPE svg PUBLIC "-//W3C//DTD SVG 20010904//EN"
 "http://www.w3.org/TR/2001/REC-SVG-20010904/DTD/svg10.dtd">
<svg version="1.0" xmlns="http://www.w3.org/2000/svg"
 width="616.000000pt" height="616.000000pt" viewBox="0 0 616.000000 616.000000"
 preserveAspectRatio="xMidYMid meet">
<metadata>
Created by potrace 1.16, written by Peter Selinger 2001-2019
</metadata>
<g transform="translate(0.000000,616.000000) scale(0.100000,-0.100000)"
fill="#000000" stroke="none">
<path d="M3099 5389 c-55 -16 -131 -79 -166 -139 -53 -91 -41 -85 -264 -131
l-206 -42 -54 26 c-96 49 -215 33 -287 -36 -35 -34 -72 -96 -72 -122 0 -9
-115 -91 -276 -199 l-276 -184 -45 15 c-64 22 -164 13 -229 -20 -52 -26 -112
-85 -138 -134 -27 -54 -38 -149 -26 -225 l12 -69 -49 -57 c-26 -31 -133 -156
-237 -276 -104 -121 -196 -236 -205 -255 -14 -32 -16 -93 -16 -501 l1 -465 26
-51 c16 -30 87 -114 173 -205 l145 -153 0 -61 c0 -78 22 -142 66 -193 108
-126 308 -123 411 6 21 26 38 48 38 49 2 3 422 -45 451 -52 12 -3 28 -21 38
-44 23 -49 81 -107 143 -140 33 -18 55 -40 72 -71 33 -59 107 -132 162 -161
36 -18 69 -24 179 -30 l135 -8 33 -37 c18 -21 66 -82 107 -136 l74 -99 -6 -63
c-8 -90 2 -131 45 -178 91 -101 237 -104 329 -7 41 44 54 80 54 150 1 89 -41
153 -129 199 -13 6 -57 14 -98 17 l-73 6 -64 81 c-34 45 -67 87 -71 94 -5 9
12 34 51 75 97 100 93 84 93 417 l0 290 88 0 c49 0 164 -3 255 -7 l167 -6 0
-206 c0 -113 3 -251 7 -306 l6 -100 106 -110 c58 -60 124 -129 146 -153 l40
-43 -3 -307 -4 -307 26 -24 c34 -32 88 -32 122 0 23 22 24 28 24 160 l0 137
58 -5 c49 -4 64 -1 112 24 35 19 68 47 92 79 l38 49 122 11 c208 20 205 18
473 288 l230 231 85 166 c83 163 85 166 125 177 59 16 121 65 155 124 25 45
30 64 30 121 0 38 -5 87 -11 111 -11 43 -11 43 60 150 39 59 75 125 81 148 7
25 10 123 8 262 l-3 221 -28 45 c-15 25 -48 74 -73 110 -36 51 -44 70 -39 90
4 14 9 61 12 105 4 75 3 83 -27 140 -24 46 -34 79 -39 140 -4 44 -14 91 -21
105 -17 33 -74 100 -205 240 -145 156 -140 146 -119 216 23 79 14 180 -20 238
-73 124 -214 181 -348 140 l-61 -18 -35 40 c-266 296 -319 347 -392 374 -24 8
-135 15 -353 19 -178 4 -321 11 -325 17 -5 5 -17 30 -26 56 -22 60 -92 133
-154 160 -54 24 -176 33 -233 17z m160 -178 c72 -37 96 -104 62 -175 -17 -34
-33 -50 -67 -67 -41 -19 -50 -20 -87 -9 -54 16 -97 59 -99 102 -4 80 10 108
77 149 38 24 66 24 114 0z m-336 -263 c35 -59 93 -113 148 -137 38 -17 48 -27
53 -52 3 -17 6 -133 6 -258 l1 -226 -173 -166 -173 -167 -5 -270 c-3 -149 -7
-273 -10 -276 -4 -3 -51 -8 -105 -11 -143 -9 -201 -22 -280 -63 -104 -55 -182
-138 -241 -257 l-49 -98 0 -137 0 -137 48 -96 c35 -72 64 -113 111 -159 106
-106 211 -151 387 -163 52 -3 105 -8 118 -11 l24 -5 -6 -257 c-3 -141 -10
-269 -16 -284 -5 -14 -30 -40 -56 -58 l-46 -31 -141 7 -142 7 -48 45 -48 44
41 47 c57 64 71 96 77 171 8 123 -59 222 -174 256 -104 30 -181 8 -269 -76
l-50 -47 -223 27 c-123 15 -227 31 -231 36 -5 5 -13 24 -19 42 l-11 33 194
192 c136 135 200 207 214 238 18 39 21 65 21 245 l0 201 53 36 c96 63 138 156
122 264 -15 99 -85 180 -179 208 -105 32 -180 13 -256 -64 -76 -77 -99 -167
-69 -275 13 -46 103 -142 143 -152 l26 -6 0 -187 0 -186 -199 -199 -199 -199
-52 13 c-58 14 -129 8 -186 -16 l-37 -16 -110 109 c-60 59 -122 126 -138 147
l-29 39 0 234 0 233 53 0 c50 0 53 -2 72 -37 33 -62 56 -85 109 -109 116 -54
247 -9 298 104 37 82 22 187 -36 250 -79 88 -271 82 -338 -9 -20 -27 -26 -29
-90 -29 l-68 0 0 96 c0 52 5 105 11 117 22 41 435 527 449 527 4 0 25 -7 46
-16 23 -10 68 -16 114 -16 87 0 136 17 211 75 l47 35 206 -66 c191 -61 207
-68 212 -92 20 -99 49 -147 115 -192 155 -104 371 -18 410 163 29 135 -36 259
-161 310 -46 18 -155 16 -203 -5 -20 -9 -55 -32 -76 -51 l-38 -34 -184 55
c-101 31 -191 60 -200 64 -11 6 -18 29 -22 75 -4 36 -15 85 -25 109 l-19 42
224 147 225 147 46 -40 c54 -48 135 -75 199 -66 120 16 213 117 213 231 0 40
3 47 25 55 28 11 289 68 317 69 9 1 27 -17 41 -41z m1247 -13 c56 -52 164
-167 249 -262 l83 -93 -13 -37 c-7 -21 -13 -70 -13 -110 1 -119 64 -218 168
-264 56 -24 142 -33 198 -20 l47 11 84 -88 c147 -153 247 -266 247 -278 0 -6
-24 -14 -56 -17 -72 -7 -137 -46 -184 -110 l-35 -47 -151 0 -151 0 -32 40
c-83 104 -220 128 -325 58 -116 -76 -139 -242 -48 -348 47 -55 101 -80 178
-80 89 0 159 38 199 107 l30 52 146 1 147 0 13 -32 c19 -46 85 -116 134 -141
31 -16 58 -20 120 -20 93 1 99 -3 174 -107 l46 -65 0 -175 0 -176 -48 -80
c-75 -123 -77 -125 -123 -112 -21 5 -62 8 -91 5 l-53 -6 -140 132 c-78 73
-166 155 -197 182 l-55 50 -201 5 -201 5 -11 50 c-35 155 -159 305 -310 376
-68 32 -162 49 -282 49 l-83 0 0 179 0 179 158 149 157 150 57 5 c75 6 145 43
182 96 38 54 48 149 21 217 -34 90 -142 147 -247 131 -139 -21 -220 -162 -173
-297 l16 -44 -171 -169 -170 -169 0 -213 0 -214 -255 0 -255 0 0 233 0 232
172 166 173 166 2 303 1 303 31 13 c37 16 124 95 150 138 l20 31 320 -5 320
-5 31 -30z m-1816 -6 c14 -17 26 -39 26 -49 0 -29 -41 -69 -77 -76 -27 -5 -37
-1 -63 24 -37 37 -38 61 -4 101 19 23 34 31 59 31 25 0 40 -8 59 -31z m2466
-384 c115 -59 78 -225 -50 -225 -67 0 -120 51 -120 116 0 92 90 150 170 109z
m-3384 -155 c42 -27 78 -99 69 -140 -15 -68 -92 -126 -156 -117 -135 18 -172
187 -56 257 41 26 101 25 143 0z m936 -392 c25 -27 29 -38 24 -66 -6 -42 -22
-61 -63 -78 -39 -17 -72 -7 -102 32 -28 36 -27 76 5 113 21 25 33 31 66 31 32
0 46 -6 70 -32z m2889 -417 c52 -52 27 -138 -44 -156 -55 -14 -121 52 -109
111 6 34 57 74 94 74 19 0 39 -10 59 -29z m-3435 -165 c43 -43 44 -77 5 -117
-41 -41 -90 -40 -125 2 -41 48 -32 104 22 133 41 23 61 19 98 -18z m1440 -260
c-137 -200 -138 -430 -1 -642 l44 -69 -274 -3 c-358 -3 -475 6 -549 42 -79 39
-150 112 -189 193 -28 60 -32 78 -32 153 0 75 4 93 32 152 39 83 108 154 188
194 71 35 136 39 557 42 l268 2 -44 -64z m644 33 c76 -36 150 -106 190 -181
30 -55 35 -74 38 -153 5 -105 -5 -150 -50 -225 -117 -194 -405 -249 -586 -113
-65 49 -96 88 -130 160 -23 50 -27 70 -27 153 0 85 3 102 31 160 39 82 75 124
139 166 79 50 136 64 245 61 77 -2 105 -8 150 -28z m897 -603 l158 -153 -18
-38 c-10 -20 -20 -63 -24 -94 -8 -80 15 -143 76 -212 l49 -55 -69 -129 c-68
-127 -111 -185 -135 -185 -7 0 -63 49 -125 108 l-113 108 17 42 c49 123 -12
269 -132 319 -24 10 -61 14 -117 11 -72 -3 -87 -7 -125 -33 -24 -17 -57 -53
-74 -80 -27 -43 -30 -57 -30 -130 0 -74 3 -85 32 -130 54 -84 117 -115 232
-115 72 0 62 6 225 -147 l90 -84 -105 -105 c-141 -143 -163 -155 -293 -161
l-104 -6 -16 31 c-43 82 -145 130 -254 117 l-58 -7 -132 137 -132 136 2 267 3
267 118 6 c149 9 230 33 319 99 115 85 216 227 233 331 l7 39 168 0 169 0 158
-154z m452 -251 c35 -41 36 -44 17 -90 -17 -40 -42 -55 -91 -55 -51 0 -85 36
-85 90 0 56 34 90 89 90 32 0 44 -6 70 -35z m-4033 -164 c17 -10 37 -33 44
-51 18 -44 -6 -95 -55 -116 -45 -18 -78 -10 -110 28 -36 42 -33 82 9 124 39
39 67 42 112 15z m3203 -36 c46 -24 55 -74 20 -119 -44 -56 -139 -20 -139 54
0 19 10 37 31 54 35 30 49 32 88 11z m-2224 -110 c35 -34 33 -78 -4 -116 -34
-34 -68 -37 -104 -9 -33 26 -41 63 -22 100 29 55 89 67 130 25z m1840 -750
c32 -31 32 -59 0 -91 -33 -33 -80 -30 -108 8 -18 24 -18 30 -7 58 23 55 75 66
115 25z"/>
</g>
</svg>
